<svg xmlns="http://www.w3.org/2000/svg" viewBox="0 0 1600 520" role="img" aria-labelledby="title desc"><title id="title">PilotyaSign Pro by JS-Innov.IA</title><desc id="desc">Logo officiel horizontal PilotyaSign Pro</desc><defs><linearGradient id="blue" x1="0" y1="0" x2="1" y2="1"><stop offset="0" stop-color="#071E78"/><stop offset="0.45" stop-color="#0676FF"/><stop offset="1" stop-color="#14E6F7"/></linearGradient><linearGradient id="badge" x1="0" y1="0" x2="1" y2="1"><stop offset="0" stop-color="#0840C9"/><stop offset="1" stop-color="#15CFF6"/></linearGradient><linearGradient id="line" x1="0" y1="1" x2="1" y2="0"><stop offset="0" stop-color="#17E3F8"/><stop offset="0.5" stop-color="#F7FFFF"/><stop offset="1" stop-color="#14D9F5"/></linearGradient><filter id="glow"><feGaussianBlur stdDeviation="4" result="b"/><feMerge><feMergeNode in="b"/><feMergeNode in="SourceGraphic"/></feMerge></filter></defs><g transform="translate(45 62)"><path d="M35 56h224c69 0 123 47 123 109 0 87-66 145-152 145h-76l59-73h35c43 0 74-24 74-63 0-34-30-57-73-57H89z" fill="url(#blue)"/><path d="M56 324l83-184h82L116 365z" fill="url(#blue)"/><path d="M29 306c78-4 158-37 236-98 43-34 74-73 104-126" fill="none" stroke="url(#line)" stroke-width="13" stroke-linecap="round" filter="url(#glow)"/><path d="M350 55l59 17-39 46z" fill="#1BE7F8" filter="url(#glow)"/><g fill="#0FC1FF" stroke="#FAFFFF" stroke-width="10" filter="url(#glow)"><circle cx="92" cy="288" r="21"/><circle cx="215" cy="234" r="21"/><circle cx="316" cy="148" r="21"/></g></g><text x="455" y="286" font-family="Inter,Segoe UI,Arial,sans-serif" font-size="145" font-weight="800" fill="#071C4A" letter-spacing="-6">Pilotya</text><text x="953" y="286" font-family="Inter,Segoe UI,Arial,sans-serif" font-size="145" font-weight="500" fill="#071C4A" letter-spacing="-6">Sign</text><rect x="1265" y="154" width="275" height="146" rx="34" fill="url(#badge)"/><text x="1402" y="261" text-anchor="middle" font-family="Inter,Segoe UI,Arial,sans-serif" font-size="105" font-weight="800" font-style="italic" fill="#FFFFFF">Pro</text><line x1="915" y1="368" x2="1055" y2="368" stroke="#8FA6C7" stroke-width="5"/><text x="1085" y="390" font-family="Inter,Segoe UI,Arial,sans-serif" font-size="54" font-weight="500" fill="#557098" letter-spacing="5">by JS-Innov.IA</text></svg>